<?xml version="1.0" encoding="UTF-8" standalone="no"?>
<!-- Uploaded to: SVG Repo, www.svgrepo.com, Generator: SVG Repo Mixer Tools -->

<svg
   height="800px"
   width="800px"
   version="1.1"
   id="Layer_1"
   viewBox="0 0 504.32 504.32"
   xml:space="preserve"
   sodipodi:docname="icon-network.svg"
   inkscape:version="1.2.2 (732a01da63, 2022-12-09)"
   xmlns:inkscape="http://www.inkscape.org/namespaces/inkscape"
   xmlns:sodipodi="http://sodipodi.sourceforge.net/DTD/sodipodi-0.dtd"
   xmlns="http://www.w3.org/2000/svg"
   xmlns:svg="http://www.w3.org/2000/svg"><defs
   id="defs15"><pattern
     inkscape:collect="always"
     patternUnits="userSpaceOnUse"
     width="2"
     height="1"
     patternTransform="translate(0,0) scale(10,10)"
     id="Strips1_1"
     inkscape:stockid="Stripes 1:1"><rect
       style="fill:black;stroke:none"
       x="0"
       y="-0.5"
       width="1"
       height="2"
       id="rect1865" /></pattern></defs><sodipodi:namedview
   id="namedview13"
   pagecolor="#ffffff"
   bordercolor="#000000"
   borderopacity="0.25"
   inkscape:showpageshadow="2"
   inkscape:pageopacity="0.0"
   inkscape:pagecheckerboard="0"
   inkscape:deskcolor="#d1d1d1"
   showgrid="false"
   inkscape:zoom="1.04625"
   inkscape:cx="379.92832"
   inkscape:cy="400.4779"
   inkscape:window-width="1920"
   inkscape:window-height="1017"
   inkscape:window-x="1912"
   inkscape:window-y="-8"
   inkscape:window-maximized="1"
   inkscape:current-layer="Layer_1" />
<g
   transform="translate(1 1)"
   id="g8"
   style="fill:#ffda6b;fill-opacity:1;stroke:url(#Strips1_1);stroke-opacity:1">
	<path
   style="fill:#ffda6b;fill-opacity:1;stroke:url(#Strips1_1);stroke-opacity:1"
   d="M344.387,277.187c37.547,0,68.267,30.72,68.267,68.267s-30.72,68.267-68.267,68.267   S276.12,383,276.12,345.454S306.84,277.187,344.387,277.187"
   id="path2" />
	<path
   style="fill:#ffda6b;fill-opacity:1;stroke:url(#Strips1_1);stroke-opacity:1"
   d="M412.653,345.454c0-37.547-30.72-68.267-68.267-68.267s-68.267,30.72-68.267,68.267   s30.72,68.267,68.267,68.267S412.653,383,412.653,345.454L412.653,345.454z M492.867,470.04c6.827,6.827,6.827,17.067,0,23.893   s-17.067,6.827-23.893,0l-65.707-65.707c-16.213,11.947-36.693,19.627-58.88,19.627c-56.32,0-102.4-46.08-102.4-102.4   s46.08-102.4,102.4-102.4s102.4,46.08,102.4,102.4c0,10.24-1.707,19.627-4.267,29.013c0,0-5.973,17.92-15.36,29.013L492.867,470.04   z"
   id="path4" />
	<path
   style="fill:#ffda6b;fill-opacity:1;stroke:url(#Strips1_1);stroke-opacity:1"
   d="M276.974,422.254c-18.773,5.973-39.253,8.533-60.587,8.533   c-117.76,0-213.333-95.573-213.333-213.333S98.627,4.12,216.387,4.12c117.76,0,213.333,95.573,213.333,213.333   c0,20.48-3.413,40.96-8.533,60.587c-18.773-21.333-46.08-34.987-76.8-34.987c-56.32,0-102.4,46.08-102.4,102.4   C241.987,376.174,255.64,403.48,276.974,422.254L276.974,422.254z"
   id="path6" />
</g>
<path
   style="fill:#000000;fill-opacity:1"
   d="M481.92,504.32c-5.12,0-11.093-1.707-15.36-5.973L403.413,435.2  c-17.92,11.947-38.4,17.92-58.88,17.92c-58.88,0-106.667-47.787-106.667-106.667s47.787-106.667,106.667-106.667  S451.2,287.574,451.2,346.454c0,10.24-1.707,20.48-4.267,30.72v0.853L433.28,404.48l64,64c8.533,8.533,8.533,22.187,0,29.867  C493.013,502.614,487.04,504.32,481.92,504.32z M404.267,424.96c0.853,0,2.56,0,3.413,0.853l65.707,65.707  c5.12,5.12,12.8,5.12,17.92,0s5.12-12.8,0-17.92L425.6,407.894c-1.707-1.707-1.707-3.413-0.853-5.12l15.36-29.013  c2.56-8.533,4.267-17.92,4.267-27.307c0-53.76-44.373-98.133-98.133-98.133s-98.133,44.373-98.133,98.133  s44.373,98.133,98.133,98.133c19.627,0,39.253-6.827,56.32-18.773C402.56,425.814,403.413,424.96,404.267,424.96z M219.093,436.054  c-1.707,0-1.707,0-1.707,0c-66.56,0-134.827-34.133-174.08-87.04c-0.853-1.707-0.853-3.413,0-4.267s2.56-2.56,3.413-2.56h93.013  c0.853,0,1.707,0,2.56,0.853l101.547,82.773c1.707,0.853,1.707,2.56,1.707,4.267c0,1.707-1.707,2.56-3.413,3.413  C229.333,436.054,221.653,436.054,219.093,436.054z M55.253,350.72c38.4,46.933,100.693,76.8,162.133,76.8c0,0,4.267,0,12.8-0.853  l-93.013-75.947H55.253z M345.387,418.987c-40.107,0-72.533-32.427-72.533-72.533s32.427-72.533,72.533-72.533  s72.533,32.427,72.533,72.533S385.493,418.987,345.387,418.987z M345.387,282.454c-34.987,0-64,29.013-64,64s29.013,64,64,64  s64-29.013,64-64S380.374,282.454,345.387,282.454z M208.853,350.72h-35.84c-2.56,0-4.267-1.707-4.267-4.267  c0-2.56,1.707-4.267,4.267-4.267h35.84c2.56,0,4.267,1.707,4.267,4.267C213.12,349.014,211.413,350.72,208.853,350.72z   M30.507,325.12c-1.707,0-2.56-0.853-3.413-2.56C10.027,290.987,0.64,254.294,0.64,218.454c0-2.56,1.707-4.267,4.267-4.267h101.547  c2.56,0,5.12,1.707,5.12,4.267c0,33.28,5.12,64,16.213,92.16c0.853,2.56,0,4.267-2.56,5.12c-2.56,0.853-4.267,0-5.12-2.56  c-11.093-28.16-16.213-58.88-17.067-91.307H9.174c0.853,33.28,9.387,66.56,25.6,96.427c0.853,1.707,0,4.267-1.707,5.973  C31.36,325.12,30.507,325.12,30.507,325.12z M430.72,222.72h-68.267c-2.56,0-4.267-1.707-4.267-4.267s1.707-4.267,4.267-4.267h64  c-0.853-33.28-9.387-66.56-25.6-96.427c-0.853-1.707,0-4.267,1.707-5.973c1.707-0.853,4.267,0,5.973,1.707  c17.067,31.573,26.453,68.267,26.453,104.107C434.987,221.014,433.28,222.72,430.72,222.72z M328.32,222.72H140.587  c-2.56,0-4.267-1.707-4.267-4.267s1.707-4.267,4.267-4.267h183.467C323.2,168.96,312.96,130.56,293.333,94.72H181.547  c-2.56,0-4.267-1.707-4.267-4.267s1.707-4.267,4.267-4.267h114.347c1.707,0,2.56,0.853,3.413,1.707  c22.187,38.4,33.28,81.067,33.28,130.56C332.587,221.014,330.88,222.72,328.32,222.72z M108.16,188.587L108.16,188.587  c-2.56,0-4.267-2.56-4.267-5.12c8.533-69.12,40.96-126.293,99.84-174.08c-45.227,2.56-87.893,20.48-122.88,49.493  c-1.707,1.707-4.267,1.707-5.973-0.853c-1.707-1.707-1.707-4.267,0.853-5.973C114.987,18.773,164.48,0,216.533,0h0.853  c69.12,0,132.267,31.573,173.227,87.04c0,0,0.853,0.853,0.853,1.707l0,0l0,0c0,0.853,0,0.853,0,1.707s0,0.853-0.853,1.707  c0,0.853-0.853,0.853-0.853,1.707c0,0-0.853,0.853-1.707,0.853l0,0l0,0c-0.853,0-0.853,0-1.707,0H330.88  c-2.56,0-4.267-1.707-4.267-4.267s1.707-4.267,4.267-4.267h46.933C341.12,40.961,287.36,13.654,228.48,9.387  c15.36,12.8,29.867,26.453,41.813,40.107c1.707,1.707,1.707,4.267-0.853,5.973c-1.707,1.707-4.267,1.707-5.973-0.853  C249.813,38.401,233.6,23.894,215.68,9.388c-62.293,47.787-96.427,104.96-104.96,174.08  C112.427,186.88,110.72,188.587,108.16,188.587z M8.32,180.054H7.467c-2.56-0.853-3.413-2.56-3.413-5.12  c6.827-31.573,19.627-61.44,39.253-87.04l0,0c0-0.853,0.853-0.853,1.707-0.853c0.853,0,0.853-0.853,1.707-0.853l0,0h59.733  c2.56,0,4.267,1.707,4.267,4.267c0,2.56-1.707,4.267-4.267,4.267H48.427c-17.92,23.893-29.867,51.2-36.693,81.92  C12.587,178.347,10.027,180.054,8.32,180.054z"
   id="path10" />
</svg>
