<?xml version="1.0" encoding="UTF-8" standalone="no"?>
<svg
   viewBox="0 0 36 36"
   version="1.1"
   id="svg6"
   sodipodi:docname="icon-lock.svg"
   inkscape:version="1.2.2 (732a01da63, 2022-12-09)"
   xmlns:inkscape="http://www.inkscape.org/namespaces/inkscape"
   xmlns:sodipodi="http://sodipodi.sourceforge.net/DTD/sodipodi-0.dtd"
   xmlns="http://www.w3.org/2000/svg"
   xmlns:svg="http://www.w3.org/2000/svg">
  <defs
     id="defs10" />
  <sodipodi:namedview
     id="namedview8"
     pagecolor="#ffffff"
     bordercolor="#000000"
     borderopacity="0.25"
     inkscape:showpageshadow="2"
     inkscape:pageopacity="0.0"
     inkscape:pagecheckerboard="0"
     inkscape:deskcolor="#d1d1d1"
     showgrid="false"
     inkscape:zoom="23.25"
     inkscape:cx="18"
     inkscape:cy="18.021505"
     inkscape:window-width="1920"
     inkscape:window-height="1017"
     inkscape:window-x="1912"
     inkscape:window-y="-8"
     inkscape:window-maximized="1"
     inkscape:current-layer="svg6" />
  <path
     fill="#AAB8C2"
     d="M18 3C12.477 3 8 7.477 8 13v10h4V13c0-3.313 2.686-6 6-6s6 2.687 6 6v10h4V13c0-5.523-4.477-10-10-10z"
     id="path2"
     style="fill:#ffdb6b;fill-opacity:1;stroke:#000000;stroke-opacity:1" />
  <path
     fill="#FFAC33"
     d="M31 32c0 2.209-1.791 4-4 4H9c-2.209 0-4-1.791-4-4V20c0-2.209 1.791-4 4-4h18c2.209 0 4 1.791 4 4v12z"
     id="path4"
     style="fill:#ffda6b;fill-opacity:1;stroke:#000000;stroke-opacity:1" />
</svg>
