<?xml version="1.0" encoding="UTF-8" standalone="no"?>
<!-- Uploaded to: SVG Repo, www.svgrepo.com, Generator: SVG Repo Mixer Tools -->

<svg
   width="800px"
   height="800px"
   viewBox="0 0 24 24"
   fill="none"
   version="1.1"
   id="svg12"
   sodipodi:docname="project-2.svg"
   xml:space="preserve"
   inkscape:version="1.2.2 (732a01da63, 2022-12-09)"
   xmlns:inkscape="http://www.inkscape.org/namespaces/inkscape"
   xmlns:sodipodi="http://sodipodi.sourceforge.net/DTD/sodipodi-0.dtd"
   xmlns="http://www.w3.org/2000/svg"
   xmlns:svg="http://www.w3.org/2000/svg"><defs
     id="defs16" /><sodipodi:namedview
     id="namedview14"
     pagecolor="#ffffff"
     bordercolor="#000000"
     borderopacity="0.25"
     inkscape:showpageshadow="2"
     inkscape:pageopacity="0.0"
     inkscape:pagecheckerboard="0"
     inkscape:deskcolor="#d1d1d1"
     showgrid="false"
     inkscape:zoom="1.04625"
     inkscape:cx="248.98447"
     inkscape:cy="384.22939"
     inkscape:window-width="1920"
     inkscape:window-height="1017"
     inkscape:window-x="1912"
     inkscape:window-y="-8"
     inkscape:window-maximized="1"
     inkscape:current-layer="svg12" /><path
     d="m 2.8566308,7.4831541 c 0,-1.12011 0,-1.68016 0.21799,-2.10798 0.19174,-0.37633 0.4977,-0.68229 0.87403,-0.87403 0.42782,-0.21799 0.98788,-0.21799 2.10798,-0.21799 h 3.47452 c 0.4891802,0 0.7337802,0 0.9639802,0.05526 0.204,0.04899 0.3991,0.1298 0.5781,0.23946 0.2018,0.12368 0.3748,0.29663 0.7207,0.64254 l 0.1254,0.12548 c 0.3459,0.34591 0.5189,0.51886 0.7207,0.64254 0.179,0.10966 0.3741,0.19047 0.5781,0.23946 0.2302,0.05526 0.4748,0.05526 0.964,0.05526 h 3.4745 c 1.1201,0 1.6802,0 2.108,0.21799 0.3763,0.19174 0.6823,0.4977 0.874,0.87403 0.218,0.42782 0.218,0.98788 0.218,2.10798 v 5.5999999 c 0,1.1201 0,1.6802 -0.218,2.108 -0.1917,0.3763 -0.4977,0.6823 -0.874,0.874 -0.4278,0.218 -0.9879,0.218 -2.108,0.218 H 6.0566308 c -1.12011,0 -1.68016,0 -2.10798,-0.218 -0.37633,-0.1917 -0.68229,-0.4977 -0.87403,-0.874 -0.21799,-0.4278 -0.21799,-0.9879 -0.21799,-2.108 z"
     stroke="#000000"
     stroke-width="2"
     stroke-linecap="round"
     stroke-linejoin="round"
     id="path10"
     style="fill:#ffda6b;fill-opacity:1;stroke:#ffcb33;stroke-opacity:1" /><style
     type="text/css"
     id="style122">
	.st0{fill:#000000;}
</style><g
     id="g144"
     transform="matrix(0.03371416,0,0,0.0271052,2.3942652,3.7277361)"
     style="fill:#1f1f23;fill-opacity:1">
	<path
   class="st0"
   d="M 161.33,230.809 C 132.658,198.504 106.362,164.047 82.482,128 70.556,109.98 59.217,91.557 48.625,72.754 38.046,53.957 28.1,34.765 19.587,15.236 L 0,23.712 c 8.98,20.547 19.192,40.208 30.033,59.516 10.885,19.295 22.459,38.128 34.663,56.558 24.422,36.846 51.305,72.065 80.679,105.182 z"
   id="path124"
   style="fill:#1f1f23;fill-opacity:1" />
	<path
   class="st0"
   d="m 225.014,247.51 c -7.97,-11.684 -15.588,-23.58 -22.869,-35.622 L 123.078,284.4 c 12.614,9.669 25.477,18.986 38.56,27.894 0.571,-1.092 1.274,-2.102 2.153,-2.988 l 58.323,-59.539 c 0.879,-0.894 1.846,-1.642 2.9,-2.257 z"
   id="path126"
   style="fill:#1f1f23;fill-opacity:1" />
	<path
   class="st0"
   d="m 425.123,330.563 c -53.84,-5.765 -110.566,-24.327 -165.226,-52.294 -0.557,1.428 -1.319,2.769 -2.344,3.955 l -54.133,63.37 c -1.011,1.201 -2.256,2.132 -3.618,2.856 21.14,27.595 44.698,54.251 71.127,79.274 26.415,25.016 55.744,48.39 88.254,69.04 l 6.446,-16.269 c -22.562,-14.687 -43.541,-30.737 -63.026,-47.768 21.536,13.376 44.127,25.499 67.669,36.062 l 9.216,-23.214 c -28.525,-15.639 -55.1,-33.681 -79.713,-53.43 26.561,16.57 54.588,31.125 83.83,43.043 l 11.456,-28.861 c -11.588,-6.19 -22.883,-12.834 -33.842,-19.873 12.175,4.57 24.481,8.658 36.89,12.225 l 12.98,-32.736 c -13.582,-5.406 -26.957,-11.493 -40.084,-18.233 15.061,2.974 30.019,5.106 44.772,6.417 z"
   id="path128"
   style="fill:#1f1f23;fill-opacity:1" />
	<path
   class="st0"
   d="m 245.877,259.465 c -4.982,-4.571 -11.852,-5.347 -15.398,-1.634 l -57.37,60.455 c -3.56,3.714 -1.861,11.075 3.867,16.335 5.743,5.274 13.259,6.322 16.643,2.454 l 55.202,-62.432 c 3.399,-3.861 2.036,-10.608 -2.944,-15.178 z"
   id="path130"
   style="fill:#1f1f23;fill-opacity:1" />
	<path
   class="st0"
   d="m 438.821,301.592 c 6.124,0 11.09,-4.96 11.09,-11.076 0,-6.109 -4.966,-11.075 -11.09,-11.075 -6.109,0 -11.075,4.966 -11.075,11.075 0,6.116 4.966,11.076 11.075,11.076 z"
   id="path132"
   style="fill:#1f1f23;fill-opacity:1" />
	<path
   class="st0"
   d="m 472.62,225.205 c -4.147,0 -7.501,3.354 -7.501,7.501 0,4.146 3.354,7.501 7.501,7.501 4.146,0 7.501,-3.355 7.501,-7.501 0,-4.146 -3.355,-7.501 -7.501,-7.501 z"
   id="path134"
   style="fill:#1f1f23;fill-opacity:1" />
	<path
   class="st0"
   d="m 450.117,383.348 c -5.186,0 -9.376,4.19 -9.376,9.376 0,5.178 4.19,9.376 9.376,9.376 5.186,0 9.376,-4.198 9.376,-9.376 0,-5.186 -4.19,-9.376 -9.376,-9.376 z"
   id="path136"
   style="fill:#1f1f23;fill-opacity:1" />
	<path
   class="st0"
   d="m 502.624,331.464 c -5.186,0 -9.376,4.19 -9.376,9.376 0,5.179 4.19,9.376 9.376,9.376 5.186,0 9.376,-4.198 9.376,-9.376 0,-5.186 -4.19,-9.376 -9.376,-9.376 z"
   id="path138"
   style="fill:#1f1f23;fill-opacity:1" />
	<path
   class="st0"
   d="m 430.119,443.978 c -5.186,0 -9.376,4.19 -9.376,9.376 0,5.178 4.19,9.376 9.376,9.376 5.186,0 9.376,-4.198 9.376,-9.376 10e-4,-5.186 -4.189,-9.376 -9.376,-9.376 z"
   id="path140"
   style="fill:#1f1f23;fill-opacity:1" />
	<path
   class="st0"
   d="m 378.36,273.551 c 5.582,0 10.094,-4.513 10.094,-10.087 0,-5.56 -4.512,-10.072 -10.094,-10.072 -5.553,0 -10.065,4.513 -10.065,10.072 0,5.574 4.512,10.087 10.065,10.087 z"
   id="path142"
   style="fill:#1f1f23;fill-opacity:1" />
</g></svg>
