<?xml version="1.0" encoding="UTF-8" standalone="no"?>
<!-- Uploaded to: SVG Repo, www.svgrepo.com, Generator: SVG Repo Mixer Tools -->

<svg
   fill="#000000"
   height="800px"
   width="800px"
   version="1.1"
   id="Capa_1"
   viewBox="0 0 490 490"
   xml:space="preserve"
   sodipodi:docname="project-3.svg"
   inkscape:version="1.2.2 (732a01da63, 2022-12-09)"
   xmlns:inkscape="http://www.inkscape.org/namespaces/inkscape"
   xmlns:sodipodi="http://sodipodi.sourceforge.net/DTD/sodipodi-0.dtd"
   xmlns:xlink="http://www.w3.org/1999/xlink"
   xmlns="http://www.w3.org/2000/svg"
   xmlns:svg="http://www.w3.org/2000/svg"><defs
   id="defs1081"><linearGradient
     inkscape:collect="always"
     id="linearGradient1631"><stop
       style="stop-color:#000000;stop-opacity:1;"
       offset="0"
       id="stop1627" /><stop
       style="stop-color:#000000;stop-opacity:0;"
       offset="1"
       id="stop1629" /></linearGradient><linearGradient
     inkscape:collect="always"
     xlink:href="#linearGradient1631"
     id="linearGradient1633"
     x1="0"
     y1="245"
     x2="490"
     y2="245"
     gradientUnits="userSpaceOnUse" /></defs><sodipodi:namedview
   id="namedview1079"
   pagecolor="#ffffff"
   bordercolor="#000000"
   borderopacity="0.25"
   inkscape:showpageshadow="2"
   inkscape:pageopacity="0.0"
   inkscape:pagecheckerboard="0"
   inkscape:deskcolor="#d1d1d1"
   showgrid="false"
   inkscape:zoom="1.04625"
   inkscape:cx="379.92832"
   inkscape:cy="400.4779"
   inkscape:window-width="1920"
   inkscape:window-height="1017"
   inkscape:window-x="1912"
   inkscape:window-y="-8"
   inkscape:window-maximized="1"
   inkscape:current-layer="Capa_1" />
<g
   id="g1076"
   style="fill:#ffda6b;fill-opacity:1;stroke:#000000;stroke-opacity:1">
	<g
   id="g1074"
   style="fill:#ffda6b;fill-opacity:1;stroke:#000000;stroke-opacity:1">
		<g
   id="g1072"
   style="fill:#ffda6b;fill-opacity:1;stroke:#000000;stroke-opacity:1">
			<path
   d="M364.8,101.5l43.2,21.8c15.7-6.6,17.4-8.9,23.7-23.7c10.4-19.5,17-73.2-7.4-97.6c-1.9-3.1-7-1.6-7,2.3     c0.8,11.3-11.3,54.1-40.1,61.1c-4.7,2.3-9.3,4.7-13.6,8.6C350.8,85.6,360.9,100.3,364.8,101.5z"
   id="path1066"
   style="fill:#ffda6b;fill-opacity:1;stroke:#000000;stroke-opacity:1" />
			<path
   d="M245,213.5C187.4,126.4,307.2,0,245,0C109.7,0,0,109.7,0,245s109.7,245,245,245s245-109.7,245-245     C490,171.9,341.8,360.9,245,213.5z M37.7,222.8c0-21.8,17.9-39.7,39.7-39.7s39.7,17.9,39.7,39.7s-17.9,39.7-39.7,39.7     S37.7,245,37.7,222.8z M112,386.6c-21.8,0-39.7-17.9-39.7-39.7s17.9-39.7,39.7-39.7c22.2,0,39.7,17.5,39.7,39.7     S134.2,386.6,112,386.6z M142.7,151.3c-21.8,0-39.7-17.9-39.7-39.7s17.9-39.7,39.7-39.7s39.7,17.9,39.7,39.7     C182.4,133.8,164.9,151.3,142.7,151.3z M226.7,454.6c-21.8,0-39.7-17.9-39.7-39.7s17.9-39.7,39.7-39.7s39.7,17.9,39.7,39.7     S248.5,454.6,226.7,454.6z M353.9,414.6c-21.8,0-39.7-17.9-39.7-39.7s17.9-39.7,39.7-39.7s39.7,17.9,39.7,39.7     S375.7,414.6,353.9,414.6z"
   id="path1068"
   style="fill:#ffda6b;fill-opacity:1;stroke:#000000;stroke-opacity:1" />
			<path
   d="M342.6,251.6l57.2-110.4l-43.2-21.4c-0.4,0-0.4-0.4-0.8-0.4l-50.6,124.4C319.2,251.6,337.2,251.8,342.6,251.6z"
   id="path1070"
   style="fill:#ffda6b;fill-opacity:1;stroke:#000000;stroke-opacity:1" />
		</g>
	</g>
</g>
</svg>
