<?xml version="1.0" encoding="UTF-8" standalone="no"?>
<!-- Uploaded to: SVG Repo, www.svgrepo.com, Generator: SVG Repo Mixer Tools -->

<svg
   fill="#000000"
   width="800px"
   height="800px"
   viewBox="0 0 60 60"
   id="Capa_1"
   version="1.1"
   xml:space="preserve"
   sodipodi:docname="project-1.svg"
   inkscape:version="1.2.2 (732a01da63, 2022-12-09)"
   xmlns:inkscape="http://www.inkscape.org/namespaces/inkscape"
   xmlns:sodipodi="http://sodipodi.sourceforge.net/DTD/sodipodi-0.dtd"
   xmlns="http://www.w3.org/2000/svg"
   xmlns:svg="http://www.w3.org/2000/svg"><defs
   id="defs82" /><sodipodi:namedview
   id="namedview80"
   pagecolor="#ffffff"
   bordercolor="#000000"
   borderopacity="0.25"
   inkscape:showpageshadow="2"
   inkscape:pageopacity="0.0"
   inkscape:pagecheckerboard="0"
   inkscape:deskcolor="#d1d1d1"
   showgrid="false"
   inkscape:zoom="1.04625"
   inkscape:cx="247.07288"
   inkscape:cy="400.4779"
   inkscape:window-width="1920"
   inkscape:window-height="1017"
   inkscape:window-x="1912"
   inkscape:window-y="-8"
   inkscape:window-maximized="1"
   inkscape:current-layer="Capa_1" />

<g
   id="g47"
   style="fill:#ffda6b;fill-opacity:1">

<path
   d="M59,55.5v-39H47v39h-3v-31H32v31h-3v-23H17v23h-3v-14H2v14H1c-0.552,0-1,0.447-1,1s0.448,1,1,1h1h12h3h12h3h12h3h12   c0.552,0,1-0.447,1-1S59.552,55.5,59,55.5z M4,55.5v-12h8v12H4z M19,55.5v-21h8v21H19z M34,55.5v-29h8v29H34z M49,55.5v-37h8v37H49   z"
   id="path43"
   style="fill:#ffda6b;fill-opacity:1" />

<path
   d="M8.03,27.83c0.169,0,0.342-0.043,0.499-0.134l36.269-20.94l-2.27,4.99c-0.229,0.503-0.007,1.096,0.496,1.324   c0.134,0.062,0.275,0.09,0.414,0.09c0.38,0,0.743-0.218,0.911-0.586l3.562-7.83c0.011-0.025,0.009-0.052,0.018-0.078   c0.019-0.053,0.034-0.104,0.044-0.16c0.005-0.028,0.021-0.051,0.023-0.08c0.001-0.012-0.004-0.022-0.003-0.034   c0.002-0.038-0.002-0.073-0.004-0.111c-0.003-0.055-0.012-0.107-0.024-0.162c-0.008-0.038-0.01-0.077-0.023-0.114   c-0.012-0.036-0.033-0.066-0.049-0.101C47.88,3.881,47.88,3.854,47.866,3.83c-0.014-0.024-0.038-0.038-0.054-0.061   c-0.021-0.031-0.037-0.064-0.062-0.092c-0.026-0.03-0.059-0.051-0.089-0.078c-0.041-0.037-0.082-0.071-0.128-0.101   c-0.031-0.02-0.059-0.042-0.093-0.059c-0.011-0.005-0.017-0.015-0.028-0.02c-0.025-0.011-0.052-0.009-0.077-0.018   c-0.055-0.02-0.109-0.034-0.166-0.044c-0.026-0.005-0.047-0.02-0.074-0.022l-8.562-0.83c-0.555-0.056-1.039,0.35-1.092,0.898   c-0.054,0.55,0.349,1.039,0.898,1.092l5.456,0.529L7.529,25.964C7.05,26.24,6.887,26.852,7.163,27.33   C7.348,27.651,7.684,27.83,8.03,27.83z"
   id="path45"
   style="fill:#ffda6b;fill-opacity:1" />

</g>

<g
   id="g49" />

<g
   id="g51" />

<g
   id="g53" />

<g
   id="g55" />

<g
   id="g57" />

<g
   id="g59" />

<g
   id="g61" />

<g
   id="g63" />

<g
   id="g65" />

<g
   id="g67" />

<g
   id="g69" />

<g
   id="g71" />

<g
   id="g73" />

<g
   id="g75" />

<g
   id="g77" />

</svg>
